<mxfile host="app.diagrams.net" agent="Mozilla/5.0 (Macintosh; Intel Mac OS X 10_15_7) AppleWebKit/605.1.15 (KHTML, like Gecko) Version/17.4.1 Safari/605.1.15" version="26.2.12">
  <diagram name="第 1 页" id="rZHuqhX8mcf8ab5VrxkL">
    <mxGraphModel dx="1428" dy="832" grid="1" gridSize="10" guides="1" tooltips="1" connect="1" arrows="1" fold="1" page="1" pageScale="1" pageWidth="827" pageHeight="1169" math="0" shadow="0">
      <root>
        <mxCell id="0" />
        <mxCell id="1" parent="0" />
        <mxCell id="bgH9FFXuLwX9Ysk2FnxZ-82" style="edgeStyle=orthogonalEdgeStyle;rounded=0;orthogonalLoop=1;jettySize=auto;html=1;exitX=0.5;exitY=1;exitDx=0;exitDy=0;entryX=0.5;entryY=0;entryDx=0;entryDy=0;" parent="1" source="bgH9FFXuLwX9Ysk2FnxZ-49" target="bgH9FFXuLwX9Ysk2FnxZ-54" edge="1">
          <mxGeometry relative="1" as="geometry" />
        </mxCell>
        <mxCell id="bgH9FFXuLwX9Ysk2FnxZ-84" style="edgeStyle=orthogonalEdgeStyle;rounded=0;orthogonalLoop=1;jettySize=auto;html=1;exitX=0.5;exitY=1;exitDx=0;exitDy=0;" parent="1" source="bgH9FFXuLwX9Ysk2FnxZ-49" target="bgH9FFXuLwX9Ysk2FnxZ-50" edge="1">
          <mxGeometry relative="1" as="geometry" />
        </mxCell>
        <mxCell id="bgH9FFXuLwX9Ysk2FnxZ-85" style="edgeStyle=orthogonalEdgeStyle;rounded=0;orthogonalLoop=1;jettySize=auto;html=1;exitX=0.5;exitY=1;exitDx=0;exitDy=0;" parent="1" source="bgH9FFXuLwX9Ysk2FnxZ-49" target="bgH9FFXuLwX9Ysk2FnxZ-51" edge="1">
          <mxGeometry relative="1" as="geometry" />
        </mxCell>
        <mxCell id="bgH9FFXuLwX9Ysk2FnxZ-86" style="edgeStyle=orthogonalEdgeStyle;rounded=0;orthogonalLoop=1;jettySize=auto;html=1;exitX=0.5;exitY=1;exitDx=0;exitDy=0;entryX=0.5;entryY=0;entryDx=0;entryDy=0;" parent="1" source="bgH9FFXuLwX9Ysk2FnxZ-49" target="bgH9FFXuLwX9Ysk2FnxZ-76" edge="1">
          <mxGeometry relative="1" as="geometry" />
        </mxCell>
        <mxCell id="bgH9FFXuLwX9Ysk2FnxZ-49" value="&lt;font face=&quot;Helvetica&quot;&gt;隐私集合运算&lt;/font&gt;&lt;div&gt;&lt;font face=&quot;Helvetica&quot;&gt;（PSO）&lt;/font&gt;&lt;/div&gt;" style="rounded=0;whiteSpace=wrap;html=1;strokeWidth=2;" parent="1" vertex="1">
          <mxGeometry x="560" y="100" width="120" height="50" as="geometry" />
        </mxCell>
        <mxCell id="bgH9FFXuLwX9Ysk2FnxZ-87" style="edgeStyle=orthogonalEdgeStyle;rounded=0;orthogonalLoop=1;jettySize=auto;html=1;exitX=0.5;exitY=1;exitDx=0;exitDy=0;entryX=0.5;entryY=0;entryDx=0;entryDy=0;" parent="1" source="bgH9FFXuLwX9Ysk2FnxZ-50" target="bgH9FFXuLwX9Ysk2FnxZ-59" edge="1">
          <mxGeometry relative="1" as="geometry" />
        </mxCell>
        <mxCell id="bgH9FFXuLwX9Ysk2FnxZ-88" style="edgeStyle=orthogonalEdgeStyle;rounded=0;orthogonalLoop=1;jettySize=auto;html=1;exitX=0.5;exitY=1;exitDx=0;exitDy=0;entryX=0.5;entryY=0;entryDx=0;entryDy=0;" parent="1" source="bgH9FFXuLwX9Ysk2FnxZ-50" target="bgH9FFXuLwX9Ysk2FnxZ-60" edge="1">
          <mxGeometry relative="1" as="geometry" />
        </mxCell>
        <mxCell id="bgH9FFXuLwX9Ysk2FnxZ-50" value="&lt;font face=&quot;Helvetica&quot;&gt;隐私集合交集&lt;/font&gt;&lt;div&gt;&lt;font face=&quot;Helvetica&quot;&gt;（PSI）&lt;/font&gt;&lt;/div&gt;" style="rounded=0;whiteSpace=wrap;html=1;strokeWidth=2;" parent="1" vertex="1">
          <mxGeometry x="150" y="230" width="110" height="50" as="geometry" />
        </mxCell>
        <mxCell id="bgH9FFXuLwX9Ysk2FnxZ-91" style="edgeStyle=orthogonalEdgeStyle;rounded=0;orthogonalLoop=1;jettySize=auto;html=1;exitX=0.5;exitY=1;exitDx=0;exitDy=0;entryX=0.5;entryY=0;entryDx=0;entryDy=0;" parent="1" source="bgH9FFXuLwX9Ysk2FnxZ-51" target="bgH9FFXuLwX9Ysk2FnxZ-58" edge="1">
          <mxGeometry relative="1" as="geometry" />
        </mxCell>
        <mxCell id="bgH9FFXuLwX9Ysk2FnxZ-92" style="edgeStyle=orthogonalEdgeStyle;rounded=0;orthogonalLoop=1;jettySize=auto;html=1;exitX=0.5;exitY=1;exitDx=0;exitDy=0;" parent="1" source="bgH9FFXuLwX9Ysk2FnxZ-51" target="bgH9FFXuLwX9Ysk2FnxZ-73" edge="1">
          <mxGeometry relative="1" as="geometry" />
        </mxCell>
        <mxCell id="bgH9FFXuLwX9Ysk2FnxZ-51" value="&lt;font face=&quot;Helvetica&quot;&gt;隐私集合并集（PSU）&lt;/font&gt;" style="rounded=0;whiteSpace=wrap;html=1;strokeWidth=2;" parent="1" vertex="1">
          <mxGeometry x="690" y="230" width="110" height="50" as="geometry" />
        </mxCell>
        <mxCell id="bgH9FFXuLwX9Ysk2FnxZ-89" style="edgeStyle=orthogonalEdgeStyle;rounded=0;orthogonalLoop=1;jettySize=auto;html=1;exitX=0.5;exitY=1;exitDx=0;exitDy=0;entryX=0.5;entryY=0;entryDx=0;entryDy=0;" parent="1" source="bgH9FFXuLwX9Ysk2FnxZ-54" target="bgH9FFXuLwX9Ysk2FnxZ-63" edge="1">
          <mxGeometry relative="1" as="geometry" />
        </mxCell>
        <mxCell id="bgH9FFXuLwX9Ysk2FnxZ-90" style="edgeStyle=orthogonalEdgeStyle;rounded=0;orthogonalLoop=1;jettySize=auto;html=1;exitX=0.5;exitY=1;exitDx=0;exitDy=0;entryX=0.5;entryY=0;entryDx=0;entryDy=0;" parent="1" source="bgH9FFXuLwX9Ysk2FnxZ-54" target="bgH9FFXuLwX9Ysk2FnxZ-57" edge="1">
          <mxGeometry relative="1" as="geometry" />
        </mxCell>
        <mxCell id="bgH9FFXuLwX9Ysk2FnxZ-54" value="隐私集合交集运算（PCSI）" style="rounded=0;whiteSpace=wrap;html=1;strokeWidth=2;" parent="1" vertex="1">
          <mxGeometry x="414" y="230" width="111" height="50" as="geometry" />
        </mxCell>
        <mxCell id="bgH9FFXuLwX9Ysk2FnxZ-57" value="&lt;font face=&quot;Helvetica&quot;&gt;基于电路&lt;/font&gt;&lt;div&gt;&lt;font face=&quot;Helvetica&quot;&gt;的方案&lt;/font&gt;&lt;/div&gt;" style="rounded=0;whiteSpace=wrap;html=1;strokeWidth=2;" parent="1" vertex="1">
          <mxGeometry x="490" y="320" width="110" height="50" as="geometry" />
        </mxCell>
        <mxCell id="bgH9FFXuLwX9Ysk2FnxZ-58" value="基于公钥密码学&lt;div&gt;的方案&lt;/div&gt;" style="rounded=0;whiteSpace=wrap;html=1;strokeWidth=2;" parent="1" vertex="1">
          <mxGeometry x="630" y="320" width="110" height="50" as="geometry" />
        </mxCell>
        <mxCell id="bgH9FFXuLwX9Ysk2FnxZ-59" value="&lt;font face=&quot;Helvetica&quot;&gt;基于公钥密码学&lt;/font&gt;&lt;div&gt;&lt;font face=&quot;Helvetica&quot;&gt;的方案&lt;/font&gt;&lt;/div&gt;" style="rounded=0;whiteSpace=wrap;html=1;strokeWidth=2;" parent="1" vertex="1">
          <mxGeometry x="70" y="320" width="110" height="50" as="geometry" />
        </mxCell>
        <mxCell id="bgH9FFXuLwX9Ysk2FnxZ-60" value="&lt;font face=&quot;Helvetica&quot;&gt;基于不经意传输&lt;/font&gt;&lt;div&gt;&lt;font face=&quot;Helvetica&quot;&gt;的方案&lt;/font&gt;&lt;/div&gt;" style="rounded=0;whiteSpace=wrap;html=1;strokeWidth=2;" parent="1" vertex="1">
          <mxGeometry x="210" y="320" width="110" height="50" as="geometry" />
        </mxCell>
        <mxCell id="bgH9FFXuLwX9Ysk2FnxZ-63" value="&lt;font face=&quot;Helvetica&quot;&gt;基于秘密分享&lt;/font&gt;&lt;div&gt;&lt;font face=&quot;Helvetica&quot;&gt;的方案&lt;/font&gt;&lt;/div&gt;" style="rounded=0;whiteSpace=wrap;html=1;strokeWidth=2;" parent="1" vertex="1">
          <mxGeometry x="350" y="320" width="110" height="50" as="geometry" />
        </mxCell>
        <mxCell id="bgH9FFXuLwX9Ysk2FnxZ-69" value="&lt;div style=&quot;&quot;&gt;&lt;font style=&quot;font-size: 14px;&quot; face=&quot;Times New Roman&quot;&gt;&lt;span style=&quot;text-align: start; line-height: 24px;&quot; lang=&quot;EN-US&quot;&gt;Kissner&lt;/span&gt;&lt;span style=&quot;text-align: start; line-height: 24px;&quot; lang=&quot;EN-US&quot;&gt;&lt;sup&gt;[52]&lt;/sup&gt;&lt;/span&gt;&lt;/font&gt;&lt;/div&gt;&lt;div style=&quot;&quot;&gt;&lt;span style=&quot;text-align: start; line-height: 24px;&quot; lang=&quot;EN-US&quot;&gt;&lt;font style=&quot;font-size: 14px;&quot; face=&quot;Times New Roman&quot;&gt;&lt;span style=&quot;line-height: 24px;&quot; lang=&quot;EN-US&quot;&gt;Frikken&lt;/span&gt;&lt;sup&gt;&lt;span style=&quot;line-height: 24px;&quot; lang=&quot;EN-US&quot;&gt;[17]&lt;/span&gt;&lt;/sup&gt;&lt;sup&gt;&lt;br&gt;&lt;/sup&gt;&lt;/font&gt;&lt;/span&gt;&lt;/div&gt;&lt;div style=&quot;&quot;&gt;&lt;span style=&quot;text-align: start; line-height: 24px;&quot; lang=&quot;EN-US&quot;&gt;&lt;font style=&quot;font-size: 14px;&quot; face=&quot;Times New Roman&quot;&gt;&lt;span style=&quot;line-height: 24px;&quot; lang=&quot;EN-US&quot;&gt;Hazay&lt;/span&gt;&lt;span style=&quot;line-height: 24px;&quot; lang=&quot;EN-US&quot;&gt;&lt;sup&gt;[53]&lt;/sup&gt;&lt;/span&gt;&lt;sup&gt;&lt;span style=&quot;line-height: 24px;&quot; lang=&quot;EN-US&quot;&gt;&lt;br&gt;&lt;/span&gt;&lt;/sup&gt;&lt;/font&gt;&lt;/span&gt;&lt;/div&gt;&lt;div style=&quot;&quot;&gt;&lt;span style=&quot;text-align: start; line-height: 24px;&quot; lang=&quot;EN-US&quot;&gt;&lt;span style=&quot;line-height: 24px;&quot; lang=&quot;EN-US&quot;&gt;&lt;font style=&quot;font-size: 14px;&quot; face=&quot;Times New Roman&quot;&gt;&lt;span style=&quot;line-height: 24px;&quot; lang=&quot;EN-US&quot;&gt;Hong&lt;/span&gt;&lt;span style=&quot;line-height: 24px;&quot; lang=&quot;EN-US&quot;&gt;&lt;sup&gt;[54]&lt;/sup&gt;&lt;/span&gt;&lt;sup&gt;&lt;br&gt;&lt;/sup&gt;&lt;/font&gt;&lt;/span&gt;&lt;/span&gt;&lt;/div&gt;&lt;div style=&quot;&quot;&gt;&lt;span style=&quot;text-align: start; line-height: 24px;&quot; lang=&quot;EN-US&quot;&gt;&lt;span style=&quot;line-height: 24px;&quot; lang=&quot;EN-US&quot;&gt;&lt;span style=&quot;line-height: 24px;&quot; lang=&quot;EN-US&quot;&gt;&lt;font style=&quot;font-size: 14px;&quot; face=&quot;Times New Roman&quot;&gt;&lt;span style=&quot;line-height: 24px;&quot; lang=&quot;EN-US&quot;&gt;Seo&lt;/span&gt;&lt;span style=&quot;line-height: 24px;&quot; lang=&quot;EN-US&quot;&gt;&lt;sup&gt;[55]&lt;/sup&gt;&lt;/span&gt;&lt;sup&gt;&lt;br&gt;&lt;/sup&gt;&lt;/font&gt;&lt;/span&gt;&lt;/span&gt;&lt;/span&gt;&lt;/div&gt;&lt;font style=&quot;font-size: 14px;&quot; face=&quot;Times New Roman&quot;&gt;&lt;span style=&quot;text-align: start;&quot;&gt;&lt;/span&gt;&lt;/font&gt;&lt;div style=&quot;&quot;&gt;&lt;font style=&quot;font-size: 14px;&quot; face=&quot;Times New Roman&quot;&gt;&lt;span style=&quot;text-align: start; line-height: 24px;&quot; lang=&quot;EN-US&quot;&gt;Blanton&lt;/span&gt;&lt;span style=&quot;text-align: start;&quot;&gt;&lt;/span&gt;&lt;span style=&quot;vertical-align: super; text-align: start;&quot;&gt;[56]&lt;/span&gt;&lt;br&gt;&lt;/font&gt;&lt;/div&gt;&lt;div style=&quot;&quot;&gt;&lt;span style=&quot;vertical-align: super; text-align: start;&quot;&gt;&lt;font style=&quot;font-size: 14px;&quot; face=&quot;Times New Roman&quot;&gt;&lt;span style=&quot;line-height: 24px;&quot; lang=&quot;EN-US&quot;&gt;Egert&lt;/span&gt;&lt;span style=&quot;line-height: 24px;&quot; lang=&quot;EN-US&quot;&gt;&lt;sup&gt;[57]&lt;/sup&gt;&lt;/span&gt;&lt;br&gt;&lt;/font&gt;&lt;/span&gt;&lt;/div&gt;&lt;div style=&quot;&quot;&gt;&lt;span style=&quot;vertical-align: super; text-align: start;&quot;&gt;&lt;span style=&quot;line-height: 24px;&quot; lang=&quot;EN-US&quot;&gt;&lt;font style=&quot;font-size: 14px;&quot; face=&quot;Times New Roman&quot;&gt;&lt;span style=&quot;line-height: 24px;&quot; lang=&quot;EN-US&quot;&gt;Davidson&lt;/span&gt;&lt;span style=&quot;vertical-align: super;&quot;&gt;[58]&lt;/span&gt;&lt;/font&gt;&lt;sup style=&quot;font-family: &amp;quot;Times New Roman&amp;quot;, serif; font-size: 12pt;&quot;&gt;&lt;br&gt;&lt;/sup&gt;&lt;/span&gt;&lt;/span&gt;&lt;/div&gt;&lt;div style=&quot;&quot;&gt;&lt;span style=&quot;vertical-align: super; text-align: start;&quot;&gt;&lt;span style=&quot;line-height: 24px;&quot; lang=&quot;EN-US&quot;&gt;&lt;font style=&quot;font-size: 14px;&quot; face=&quot;Times New Roman&quot;&gt;&lt;span style=&quot;vertical-align: super;&quot;&gt;...&lt;/span&gt;&lt;/font&gt;&lt;/span&gt;&lt;/span&gt;&lt;/div&gt;&lt;span style=&quot;font-family: -webkit-standard; font-size: medium; text-align: start;&quot;&gt;&lt;/span&gt;&lt;span style=&quot;font-family: -webkit-standard; font-size: medium; text-align: start;&quot;&gt;&lt;/span&gt;&lt;span style=&quot;font-family: -webkit-standard; font-size: medium; text-align: start;&quot;&gt;&lt;/span&gt;" style="rounded=0;whiteSpace=wrap;html=1;strokeWidth=2;align=center;dashed=1;" parent="1" vertex="1">
          <mxGeometry x="630" y="421" width="110" height="260" as="geometry" />
        </mxCell>
        <mxCell id="bgH9FFXuLwX9Ysk2FnxZ-71" value="&lt;div style=&quot;&quot;&gt;&lt;font style=&quot;font-size: 14px;&quot; face=&quot;Times New Roman&quot;&gt;&lt;span lang=&quot;EN-US&quot; style=&quot;line-height: 24px;&quot;&gt;Huang&lt;sup&gt;[42]&lt;/sup&gt;&lt;/span&gt;&lt;/font&gt;&lt;/div&gt;&lt;div style=&quot;&quot;&gt;&lt;font style=&quot;font-size: 14px;&quot; face=&quot;Times New Roman&quot;&gt;&lt;span lang=&quot;EN-US&quot; style=&quot;text-align: start; line-height: 24px;&quot;&gt;&lt;font&gt;Ciampi&lt;sup&gt;[43]&lt;/sup&gt;&lt;/font&gt;&lt;/span&gt;&lt;span lang=&quot;EN-US&quot; style=&quot;line-height: 24px;&quot;&gt;&lt;br&gt;&lt;/span&gt;&lt;/font&gt;&lt;/div&gt;&lt;div style=&quot;&quot;&gt;&lt;span style=&quot;font-family: &amp;quot;Times New Roman&amp;quot;; font-size: 14px; text-align: start;&quot;&gt;Pinka&lt;/span&gt;&lt;sup style=&quot;font-family: &amp;quot;Times New Roman&amp;quot;; text-align: start;&quot;&gt;[44]&lt;/sup&gt;&lt;font style=&quot;font-size: 14px;&quot; face=&quot;Times New Roman&quot;&gt;&lt;span lang=&quot;EN-US&quot; style=&quot;text-align: start; line-height: 24px;&quot;&gt;&lt;font&gt;&lt;sup&gt;&lt;br&gt;&lt;/sup&gt;&lt;/font&gt;&lt;/span&gt;&lt;/font&gt;&lt;/div&gt;&lt;div style=&quot;&quot;&gt;&lt;span lang=&quot;EN-US&quot; style=&quot;text-align: start; line-height: 24px;&quot;&gt;&lt;sup&gt;&lt;font style=&quot;font-size: 14px;&quot; face=&quot;Times New Roman&quot;&gt;Chandran&lt;sup&gt;[45]&lt;/sup&gt;&lt;/font&gt;&lt;/sup&gt;&lt;/span&gt;&lt;/div&gt;&lt;div style=&quot;&quot;&gt;&lt;font size=&quot;3&quot; face=&quot;Times New Roman&quot;&gt;...&lt;/font&gt;&lt;br&gt;&lt;/div&gt;&lt;span style=&quot;font-family: -webkit-standard; font-size: medium; text-align: start;&quot;&gt;&lt;/span&gt;" style="rounded=0;whiteSpace=wrap;html=1;strokeWidth=2;align=center;dashed=1;" parent="1" vertex="1">
          <mxGeometry x="490" y="421" width="110" height="150" as="geometry" />
        </mxCell>
        <mxCell id="bgH9FFXuLwX9Ysk2FnxZ-72" value="&lt;div style=&quot;&quot;&gt;&lt;font style=&quot;font-size: 14px;&quot; face=&quot;Times New Roman&quot;&gt;&lt;span lang=&quot;EN-US&quot; style=&quot;line-height: 24px;&quot;&gt;Vaidya&lt;sup&gt;[38]&lt;/sup&gt;&lt;/span&gt;&lt;/font&gt;&lt;/div&gt;&lt;div style=&quot;&quot;&gt;&lt;font style=&quot;font-size: 14px;&quot; face=&quot;Times New Roman&quot;&gt;&lt;span lang=&quot;EN-US&quot; style=&quot;text-align: start; line-height: 24px;&quot;&gt;&lt;font&gt;Hohenberger&lt;sup&gt;[39]&lt;/sup&gt;&lt;/font&gt;&lt;/span&gt;&lt;span lang=&quot;EN-US&quot; style=&quot;line-height: 24px;&quot;&gt;&lt;br&gt;&lt;/span&gt;&lt;/font&gt;&lt;/div&gt;&lt;div style=&quot;&quot;&gt;&lt;span lang=&quot;EN-US&quot; style=&quot;text-align: start; line-height: 24px;&quot;&gt;&lt;sup&gt;&lt;font style=&quot;font-size: 14px;&quot; face=&quot;Times New Roman&quot;&gt;Ion&lt;sup&gt;[41]&lt;/sup&gt;&lt;/font&gt;&lt;/sup&gt;&lt;/span&gt;&lt;/div&gt;&lt;div style=&quot;&quot;&gt;&lt;span lang=&quot;EN-US&quot; style=&quot;text-align: start; line-height: 24px;&quot;&gt;&lt;sup&gt;&lt;font style=&quot;font-size: 14px;&quot; face=&quot;Times New Roman&quot;&gt;Garimella&lt;sup&gt;[17]&lt;/sup&gt;&lt;/font&gt;&lt;/sup&gt;&lt;/span&gt;&lt;/div&gt;&lt;div style=&quot;&quot;&gt;&lt;font size=&quot;3&quot; face=&quot;Times New Roman&quot;&gt;...&lt;/font&gt;&lt;br&gt;&lt;/div&gt;&lt;span style=&quot;font-family: -webkit-standard; font-size: medium; text-align: start;&quot;&gt;&lt;/span&gt;" style="rounded=0;whiteSpace=wrap;html=1;strokeWidth=2;align=center;dashed=1;" parent="1" vertex="1">
          <mxGeometry x="350" y="421" width="110" height="150" as="geometry" />
        </mxCell>
        <mxCell id="bgH9FFXuLwX9Ysk2FnxZ-73" value="基于不经意传输&lt;div&gt;的方案&lt;/div&gt;" style="rounded=0;whiteSpace=wrap;html=1;strokeWidth=2;" parent="1" vertex="1">
          <mxGeometry x="770" y="320" width="110" height="50" as="geometry" />
        </mxCell>
        <mxCell id="bgH9FFXuLwX9Ysk2FnxZ-75" value="&lt;div style=&quot;&quot;&gt;&lt;font face=&quot;Times New Roman&quot; style=&quot;font-size: 14px;&quot;&gt;&lt;span style=&quot;text-align: start; line-height: 24px;&quot; lang=&quot;EN-US&quot;&gt;Kolesnikov&lt;/span&gt;&lt;span style=&quot;text-align: start; line-height: 24px;&quot; lang=&quot;EN-US&quot;&gt;&lt;sup&gt;[59]&lt;/sup&gt;&lt;/span&gt;&lt;span style=&quot;text-align: start;&quot;&gt;&lt;/span&gt;&lt;br&gt;&lt;/font&gt;&lt;/div&gt;&lt;div style=&quot;&quot;&gt;&lt;span style=&quot;text-align: start; line-height: 24px;&quot; lang=&quot;EN-US&quot;&gt;&lt;font face=&quot;Times New Roman&quot; style=&quot;font-size: 14px;&quot;&gt;&lt;span style=&quot;line-height: 24px;&quot; lang=&quot;EN-US&quot;&gt;Garimella&lt;/span&gt;&lt;span style=&quot;line-height: 24px;&quot; lang=&quot;EN-US&quot;&gt;&lt;sup&gt;[20]&lt;/sup&gt;&lt;/span&gt;&lt;sup&gt;&lt;br&gt;&lt;/sup&gt;&lt;/font&gt;&lt;/span&gt;&lt;/div&gt;&lt;div style=&quot;&quot;&gt;&lt;span style=&quot;text-align: start; line-height: 24px;&quot; lang=&quot;EN-US&quot;&gt;&lt;span style=&quot;line-height: 24px;&quot; lang=&quot;EN-US&quot;&gt;&lt;font face=&quot;Times New Roman&quot; style=&quot;font-size: 14px;&quot;&gt;&lt;span style=&quot;line-height: 24px;&quot; lang=&quot;EN-US&quot;&gt;Jia&lt;/span&gt;&lt;span style=&quot;line-height: 24px;&quot; lang=&quot;EN-US&quot;&gt;&lt;sup&gt;[60]&lt;/sup&gt;&lt;/span&gt;&lt;sup&gt;&lt;br&gt;&lt;/sup&gt;&lt;/font&gt;&lt;/span&gt;&lt;/span&gt;&lt;/div&gt;&lt;div style=&quot;&quot;&gt;&lt;span style=&quot;text-align: start; line-height: 24px;&quot; lang=&quot;EN-US&quot;&gt;&lt;span style=&quot;line-height: 24px;&quot; lang=&quot;EN-US&quot;&gt;&lt;span style=&quot;line-height: 24px;&quot; lang=&quot;EN-US&quot;&gt;&lt;font face=&quot;Times New Roman&quot; style=&quot;font-size: 14px;&quot;&gt;&lt;span style=&quot;line-height: 24px;&quot; lang=&quot;EN-US&quot;&gt;Zhang&lt;/span&gt;&lt;span style=&quot;line-height: 24px;&quot; lang=&quot;EN-US&quot;&gt;&lt;sup&gt;[61]&lt;/sup&gt;&lt;/span&gt;&lt;sup&gt;&lt;br&gt;&lt;/sup&gt;&lt;/font&gt;&lt;/span&gt;&lt;/span&gt;&lt;/span&gt;&lt;/div&gt;&lt;div style=&quot;&quot;&gt;&lt;span style=&quot;text-align: start; line-height: 24px;&quot; lang=&quot;EN-US&quot;&gt;&lt;span style=&quot;line-height: 24px;&quot; lang=&quot;EN-US&quot;&gt;&lt;span style=&quot;line-height: 24px;&quot; lang=&quot;EN-US&quot;&gt;&lt;span style=&quot;line-height: 24px;&quot; lang=&quot;EN-US&quot;&gt;&lt;font face=&quot;Times New Roman&quot; style=&quot;font-size: 14px;&quot;&gt;&lt;span style=&quot;line-height: 24px;&quot; lang=&quot;EN-US&quot;&gt;Chen&lt;/span&gt;&lt;span style=&quot;line-height: 24px;&quot; lang=&quot;EN-US&quot;&gt;&lt;sup&gt;[62]&lt;/sup&gt;&lt;/span&gt;&lt;sup&gt;&lt;br&gt;&lt;/sup&gt;&lt;/font&gt;&lt;/span&gt;&lt;/span&gt;&lt;/span&gt;&lt;/span&gt;&lt;/div&gt;&lt;div style=&quot;&quot;&gt;&lt;span style=&quot;text-align: start; line-height: 24px;&quot; lang=&quot;EN-US&quot;&gt;&lt;span style=&quot;line-height: 24px;&quot; lang=&quot;EN-US&quot;&gt;&lt;span style=&quot;line-height: 24px;&quot; lang=&quot;EN-US&quot;&gt;&lt;span style=&quot;line-height: 24px;&quot; lang=&quot;EN-US&quot;&gt;&lt;span style=&quot;line-height: 24px;&quot; lang=&quot;EN-US&quot;&gt;&lt;font face=&quot;Times New Roman&quot; style=&quot;font-size: 14px;&quot;&gt;&lt;span style=&quot;line-height: 24px;&quot; lang=&quot;EN-US&quot;&gt;Bienstock&lt;/span&gt;&lt;span style=&quot;line-height: 24px;&quot; lang=&quot;EN-US&quot;&gt;&lt;sup&gt;[43]&lt;/sup&gt;&lt;/span&gt;&lt;sup&gt;&lt;br&gt;&lt;/sup&gt;&lt;/font&gt;&lt;/span&gt;&lt;/span&gt;&lt;/span&gt;&lt;/span&gt;&lt;/span&gt;&lt;/div&gt;&lt;div style=&quot;&quot;&gt;&lt;span style=&quot;text-align: start; line-height: 24px;&quot; lang=&quot;EN-US&quot;&gt;&lt;span style=&quot;line-height: 24px;&quot; lang=&quot;EN-US&quot;&gt;&lt;span style=&quot;line-height: 24px;&quot; lang=&quot;EN-US&quot;&gt;&lt;span style=&quot;line-height: 24px;&quot; lang=&quot;EN-US&quot;&gt;&lt;span style=&quot;line-height: 24px;&quot; lang=&quot;EN-US&quot;&gt;&lt;span style=&quot;line-height: 24px;&quot; lang=&quot;EN-US&quot;&gt;&lt;sup&gt;&lt;font face=&quot;Times New Roman&quot; style=&quot;font-size: 14px;&quot;&gt;...&lt;/font&gt;&lt;/sup&gt;&lt;/span&gt;&lt;/span&gt;&lt;/span&gt;&lt;/span&gt;&lt;/span&gt;&lt;/span&gt;&lt;/div&gt;&lt;span style=&quot;font-family: -webkit-standard; font-size: medium; text-align: start;&quot;&gt;&lt;/span&gt;&lt;span style=&quot;font-family: -webkit-standard; font-size: medium; text-align: start;&quot;&gt;&lt;/span&gt;&lt;span style=&quot;font-family: -webkit-standard; font-size: medium; text-align: start;&quot;&gt;&lt;/span&gt;" style="rounded=0;whiteSpace=wrap;html=1;strokeWidth=2;align=center;dashed=1;" parent="1" vertex="1">
          <mxGeometry x="770" y="421" width="110" height="210" as="geometry" />
        </mxCell>
        <mxCell id="bgH9FFXuLwX9Ysk2FnxZ-93" style="edgeStyle=orthogonalEdgeStyle;rounded=0;orthogonalLoop=1;jettySize=auto;html=1;exitX=0.5;exitY=1;exitDx=0;exitDy=0;entryX=0.5;entryY=0;entryDx=0;entryDy=0;" parent="1" source="bgH9FFXuLwX9Ysk2FnxZ-76" target="bgH9FFXuLwX9Ysk2FnxZ-80" edge="1">
          <mxGeometry relative="1" as="geometry" />
        </mxCell>
        <mxCell id="bgH9FFXuLwX9Ysk2FnxZ-76" value="&lt;font face=&quot;Helvetica&quot;&gt;隐私集合并集运算（PCSU）&lt;/font&gt;" style="rounded=0;whiteSpace=wrap;html=1;strokeWidth=2;" parent="1" vertex="1">
          <mxGeometry x="940" y="230" width="110" height="50" as="geometry" />
        </mxCell>
        <mxCell id="bgH9FFXuLwX9Ysk2FnxZ-78" value="&lt;div style=&quot;&quot;&gt;&lt;span style=&quot;font-family: &amp;quot;Times New Roman&amp;quot;; font-size: 14px; text-align: start; line-height: 24px;&quot; lang=&quot;EN-US&quot;&gt;Davidson&lt;/span&gt;&lt;span style=&quot;font-family: &amp;quot;Times New Roman&amp;quot;; font-size: 14px; text-align: start; vertical-align: super;&quot;&gt;[58]&lt;/span&gt;&lt;/div&gt;&lt;div style=&quot;&quot;&gt;&lt;span style=&quot;font-family: &amp;quot;Times New Roman&amp;quot;; font-size: 14px; text-align: start; vertical-align: super;&quot;&gt;&lt;span style=&quot;line-height: 24px;&quot; lang=&quot;EN-US&quot;&gt;Chen&lt;/span&gt;&lt;span style=&quot;line-height: 24px;&quot; lang=&quot;EN-US&quot;&gt;&lt;sup&gt;[62]&lt;/sup&gt;&lt;/span&gt;&lt;br&gt;&lt;/span&gt;&lt;/div&gt;&lt;span style=&quot;font-family: -webkit-standard; font-size: medium; text-align: start;&quot;&gt;&lt;/span&gt;&lt;span style=&quot;font-family: -webkit-standard; font-size: medium; text-align: start;&quot;&gt;&lt;/span&gt;&lt;span style=&quot;font-family: -webkit-standard; font-size: medium; text-align: start;&quot;&gt;&lt;/span&gt;" style="rounded=0;whiteSpace=wrap;html=1;strokeWidth=2;align=center;dashed=1;" parent="1" vertex="1">
          <mxGeometry x="940" y="421" width="110" height="60" as="geometry" />
        </mxCell>
        <mxCell id="bgH9FFXuLwX9Ysk2FnxZ-80" value="仅支持部分计算&lt;div&gt;的方案&lt;/div&gt;" style="rounded=0;whiteSpace=wrap;html=1;strokeWidth=2;dashed=1;" parent="1" vertex="1">
          <mxGeometry x="940" y="320" width="110" height="50" as="geometry" />
        </mxCell>
        <mxCell id="bgH9FFXuLwX9Ysk2FnxZ-95" value="" style="shape=singleArrow;direction=north;whiteSpace=wrap;html=1;arrowWidth=0.46857142857142664;arrowSize=0.35714285714285665;fillColor=light-dark(#919191, #ededed);" parent="1" vertex="1">
          <mxGeometry x="112.5" y="370" width="25" height="50" as="geometry" />
        </mxCell>
        <mxCell id="bgH9FFXuLwX9Ysk2FnxZ-97" value="" style="shape=singleArrow;direction=north;whiteSpace=wrap;html=1;arrowWidth=0.46857142857142664;arrowSize=0.35714285714285665;fillColor=light-dark(#919191, #ededed);" parent="1" vertex="1">
          <mxGeometry x="252.5" y="370" width="25" height="50" as="geometry" />
        </mxCell>
        <mxCell id="bgH9FFXuLwX9Ysk2FnxZ-98" value="" style="shape=singleArrow;direction=north;whiteSpace=wrap;html=1;arrowWidth=0.46857142857142664;arrowSize=0.35714285714285665;fillColor=light-dark(#919191, #ededed);" parent="1" vertex="1">
          <mxGeometry x="392.5" y="370" width="25" height="50" as="geometry" />
        </mxCell>
        <mxCell id="bgH9FFXuLwX9Ysk2FnxZ-99" value="" style="shape=singleArrow;direction=north;whiteSpace=wrap;html=1;arrowWidth=0.46857142857142664;arrowSize=0.35714285714285665;fillColor=light-dark(#919191, #ededed);" parent="1" vertex="1">
          <mxGeometry x="535" y="370" width="25" height="50" as="geometry" />
        </mxCell>
        <mxCell id="bgH9FFXuLwX9Ysk2FnxZ-100" value="" style="shape=singleArrow;direction=north;whiteSpace=wrap;html=1;arrowWidth=0.46857142857142664;arrowSize=0.35714285714285665;fillColor=light-dark(#919191, #ededed);" parent="1" vertex="1">
          <mxGeometry x="672.5" y="370" width="25" height="50" as="geometry" />
        </mxCell>
        <mxCell id="bgH9FFXuLwX9Ysk2FnxZ-101" value="" style="shape=singleArrow;direction=north;whiteSpace=wrap;html=1;arrowWidth=0.46857142857142664;arrowSize=0.35714285714285665;fillColor=light-dark(#919191, #ededed);" parent="1" vertex="1">
          <mxGeometry x="812.5" y="370" width="25" height="50" as="geometry" />
        </mxCell>
        <mxCell id="bgH9FFXuLwX9Ysk2FnxZ-102" value="" style="shape=singleArrow;direction=north;whiteSpace=wrap;html=1;arrowWidth=0.46857142857142664;arrowSize=0.35714285714285665;fillColor=light-dark(#919191, #ededed);" parent="1" vertex="1">
          <mxGeometry x="982.5" y="371" width="25" height="50" as="geometry" />
        </mxCell>
        <mxCell id="4nFIb6q5MYAgMgn0ALxS-2" value="&lt;div style=&quot;&quot;&gt;&lt;font style=&quot;font-size: 14px;&quot; face=&quot;Times New Roman&quot;&gt;&lt;span lang=&quot;EN-US&quot; style=&quot;line-height: 24px;&quot;&gt;Meadow&lt;sup&gt;[28]&lt;/sup&gt;&lt;/span&gt;&lt;/font&gt;&lt;/div&gt;&lt;div style=&quot;&quot;&gt;&lt;font style=&quot;font-size: 14px;&quot; face=&quot;Times New Roman&quot;&gt;&lt;span lang=&quot;EN-US&quot; style=&quot;text-align: start; line-height: 24px;&quot;&gt;&lt;font&gt;Freedman&lt;sup&gt;[29]&lt;/sup&gt;&lt;/font&gt;&lt;/span&gt;&lt;span lang=&quot;EN-US&quot; style=&quot;line-height: 24px;&quot;&gt;&lt;br&gt;&lt;/span&gt;&lt;/font&gt;&lt;/div&gt;&lt;div style=&quot;&quot;&gt;&lt;span lang=&quot;EN-US&quot; style=&quot;text-align: start; line-height: 24px;&quot;&gt;&lt;sup&gt;&lt;font style=&quot;font-size: 14px;&quot; face=&quot;Times New Roman&quot;&gt;Hazy&lt;sup&gt;[30]&lt;/sup&gt;&lt;/font&gt;&lt;/sup&gt;&lt;/span&gt;&lt;/div&gt;&lt;div style=&quot;&quot;&gt;&lt;span lang=&quot;EN-US&quot; style=&quot;text-align: start; line-height: 24px;&quot;&gt;&lt;sup&gt;&lt;font style=&quot;font-size: 14px;&quot; face=&quot;Times New Roman&quot;&gt;Falk&lt;sup&gt;[32]&lt;/sup&gt;&lt;/font&gt;&lt;/sup&gt;&lt;/span&gt;&lt;/div&gt;&lt;div style=&quot;&quot;&gt;&lt;font size=&quot;3&quot; face=&quot;Times New Roman&quot;&gt;...&lt;/font&gt;&lt;br&gt;&lt;/div&gt;&lt;span style=&quot;font-family: -webkit-standard; font-size: medium; text-align: start;&quot;&gt;&lt;/span&gt;" style="rounded=0;whiteSpace=wrap;html=1;strokeWidth=2;align=center;dashed=1;" vertex="1" parent="1">
          <mxGeometry x="70" y="421" width="110" height="150" as="geometry" />
        </mxCell>
        <mxCell id="4nFIb6q5MYAgMgn0ALxS-3" value="&lt;div style=&quot;&quot;&gt;&lt;font style=&quot;font-size: 14px;&quot; face=&quot;Times New Roman&quot;&gt;&lt;span lang=&quot;EN-US&quot; style=&quot;line-height: 24px;&quot;&gt;Pinkas&lt;sup&gt;[34]&lt;/sup&gt;&lt;/span&gt;&lt;/font&gt;&lt;/div&gt;&lt;div style=&quot;&quot;&gt;&lt;font style=&quot;font-size: 14px;&quot; face=&quot;Times New Roman&quot;&gt;&lt;span lang=&quot;EN-US&quot; style=&quot;text-align: start; line-height: 24px;&quot;&gt;&lt;font&gt;Pinkas&lt;sup&gt;[35]&lt;/sup&gt;&lt;/font&gt;&lt;/span&gt;&lt;span lang=&quot;EN-US&quot; style=&quot;line-height: 24px;&quot;&gt;&lt;br&gt;&lt;/span&gt;&lt;/font&gt;&lt;/div&gt;&lt;div style=&quot;&quot;&gt;&lt;span lang=&quot;EN-US&quot; style=&quot;text-align: start; line-height: 24px;&quot;&gt;&lt;sup&gt;&lt;font style=&quot;font-size: 14px;&quot; face=&quot;Times New Roman&quot;&gt;Kolesnikov&lt;sup&gt;[29]&lt;/sup&gt;&lt;/font&gt;&lt;/sup&gt;&lt;/span&gt;&lt;/div&gt;&lt;div style=&quot;&quot;&gt;&lt;span lang=&quot;EN-US&quot; style=&quot;text-align: start; line-height: 24px;&quot;&gt;&lt;sup&gt;&lt;font style=&quot;font-size: 14px;&quot; face=&quot;Times New Roman&quot;&gt;Pinka&lt;sup&gt;[37]&lt;/sup&gt;&lt;/font&gt;&lt;/sup&gt;&lt;/span&gt;&lt;/div&gt;&lt;div style=&quot;&quot;&gt;&lt;span style=&quot;font-family: &amp;quot;Times New Roman&amp;quot;; font-size: 14px; text-align: start;&quot;&gt;Garimella&lt;/span&gt;&lt;sup style=&quot;font-family: &amp;quot;Times New Roman&amp;quot;; text-align: start;&quot;&gt;&lt;font style=&quot;font-size: 11px;&quot;&gt;[29]&lt;/font&gt;&lt;/sup&gt;&lt;/div&gt;&lt;div style=&quot;&quot;&gt;&lt;sup style=&quot;font-family: &amp;quot;Times New Roman&amp;quot;; text-align: start;&quot;&gt;&lt;font style=&quot;font-size: 11px;&quot;&gt;&lt;br&gt;&lt;/font&gt;&lt;/sup&gt;&lt;/div&gt;&lt;div style=&quot;&quot;&gt;&lt;span style=&quot;font-family: &amp;quot;Times New Roman&amp;quot;; font-size: 14px; text-align: start;&quot;&gt;Rindal&lt;/span&gt;&lt;sup style=&quot;font-family: &amp;quot;Times New Roman&amp;quot;; text-align: start;&quot;&gt;[20]&lt;/sup&gt;&lt;sup style=&quot;font-family: &amp;quot;Times New Roman&amp;quot;; text-align: start;&quot;&gt;&lt;font style=&quot;font-size: 11px;&quot;&gt;&lt;br&gt;&lt;/font&gt;&lt;/sup&gt;&lt;/div&gt;&lt;div style=&quot;&quot;&gt;&lt;font size=&quot;3&quot; face=&quot;Times New Roman&quot;&gt;...&lt;/font&gt;&lt;br&gt;&lt;/div&gt;&lt;span style=&quot;font-family: -webkit-standard; font-size: medium; text-align: start;&quot;&gt;&lt;/span&gt;" style="rounded=0;whiteSpace=wrap;html=1;strokeWidth=2;align=center;dashed=1;" vertex="1" parent="1">
          <mxGeometry x="210" y="421" width="110" height="209" as="geometry" />
        </mxCell>
      </root>
    </mxGraphModel>
  </diagram>
</mxfile>
